<svg width="250" height="250" viewBox="0 0 250 250" fill="none" xmlns="http://www.w3.org/2000/svg">
<rect width="250" height="250" rx="40" fill="url(#paint0_linear_17_20)"/>
<path d="M105.302 55.3284C106.768 63.7941 102.662 71.5733 96.1315 72.7039C89.6012 73.8344 83.1193 67.8881 81.6537 59.4225C80.1881 50.9568 84.2938 43.1775 90.8241 42.047C97.3544 40.9164 103.836 46.8627 105.302 55.3284Z" fill="url(#paint1_linear_17_20)"/>
<path d="M126.905 57.5921C126.719 63.9636 122.657 69.0146 117.831 68.8738C113.006 68.7329 109.245 63.4536 109.431 57.0821C109.617 50.7106 113.68 45.6597 118.505 45.8005C123.33 45.9414 127.091 51.2206 126.905 57.5921Z" fill="url(#paint2_linear_17_20)"/>
<path d="M144.242 61.6008C143.346 66.8017 139.573 70.493 135.815 69.8456C132.057 69.1982 129.737 64.4572 130.633 59.2563C131.529 54.0554 135.302 50.3641 139.06 51.0115C142.818 51.6589 145.138 56.3999 144.242 61.6008Z" fill="url(#paint3_linear_17_20)"/>
<path d="M158.072 68.3977C156.84 72.6441 153.401 75.3782 150.391 74.5046C147.381 73.631 145.941 69.4805 147.173 65.2342C148.406 60.9879 151.845 58.2537 154.854 59.1273C157.864 60.0009 159.305 64.1514 158.072 68.3977Z" fill="url(#paint4_linear_17_20)"/>
<path d="M168.952 77.7427C167.419 81.1371 164.225 83.0075 161.819 81.9203C159.413 80.8332 158.706 77.2002 160.24 73.8058C161.774 70.4115 164.968 68.5411 167.373 69.6282C169.779 70.7154 170.486 74.3484 168.952 77.7427Z" fill="url(#paint5_linear_17_20)"/>
<path d="M140.023 80.5C143.354 80.5 147.587 81.4026 151.184 84.3594C154.859 87.3816 157.451 92.2064 158.012 99.2207C158.608 106.672 155.579 112.782 151.572 117.807C147.64 122.739 142.438 127.007 138.339 130.624C129.591 138.343 125.411 141.062 115.998 150.475C112.335 154.138 111.59 159.492 113.275 163.909C114.919 168.216 118.749 171.357 124.303 171.007C129.723 170.665 132.793 167.193 133.886 162.597C135.034 157.766 133.777 152.388 130.97 149.394C129.648 147.983 129.72 145.768 131.13 144.446C132.54 143.125 134.754 143.196 136.076 144.606C140.769 149.612 142.286 157.525 140.696 164.215C139.051 171.138 133.872 177.417 124.744 177.993C115.75 178.561 109.329 173.202 106.735 166.404C104.183 159.717 105.211 151.362 111.048 145.525C120.635 135.938 125.456 132.656 133.708 125.375C138.108 121.492 142.657 117.76 146.099 113.443C149.467 109.219 151.438 104.828 151.034 99.7793C150.595 94.2939 148.687 91.3683 146.738 89.7656C144.71 88.0976 142.193 87.5 140.023 87.5C137.396 87.5 136.392 87.644 135.092 88.4326C133.47 89.4161 131.304 91.4891 127.175 96.2842L124.075 99.8838L121.556 95.8555C119.314 92.2707 117.625 90.2806 115.939 89.123C114.386 88.0557 112.542 87.5 109.523 87.5C106.662 87.5 104.078 88.3155 102.188 90.0303C100.34 91.7059 98.7385 94.6161 98.5195 99.6523C98.1024 109.252 104.357 116.985 115.585 125.172C117.147 126.311 117.49 128.5 116.352 130.062C115.213 131.623 113.023 131.967 111.461 130.828C99.9455 122.431 90.9437 112.748 91.5264 99.3477C91.8074 92.884 93.9569 88.044 97.4844 84.8447C100.969 81.6847 105.385 80.5 109.523 80.5C113.505 80.5 116.859 81.2619 119.903 83.3535C121.75 84.6219 123.353 86.2961 124.882 88.3135C127.426 85.5428 129.477 83.6505 131.461 82.4473C134.491 80.6093 137.151 80.5 140.023 80.5Z" fill="url(#paint6_linear_17_20)" stroke="url(#paint7_linear_17_20)" stroke-width="2" stroke-linecap="round"/>
<path d="M56.9531 219.062V215.312C59.1927 216.146 61.724 216.562 64.5469 216.562C67.974 216.562 69.6875 215.417 69.6875 213.125C69.6875 211.458 68.6354 210.625 66.5312 210.625H63.0312C58.4583 210.625 56.1719 208.542 56.1719 204.375C56.1719 199.792 59.4271 197.5 65.9375 197.5C68.4375 197.5 70.8073 197.865 73.0469 198.594V202.344C70.8073 201.51 68.4375 201.094 65.9375 201.094C62.1875 201.094 60.3125 202.188 60.3125 204.375C60.3125 206.042 61.2188 206.875 63.0312 206.875H66.5312C71.3958 206.875 73.8281 208.958 73.8281 213.125C73.8281 217.812 70.7344 220.156 64.5469 220.156C61.724 220.156 59.1927 219.792 56.9531 219.062ZM80.3125 211.734C80.3125 215.161 81.6406 216.875 84.2969 216.875C86.9531 216.875 88.2812 215.161 88.2812 211.734C88.2812 208.391 86.9531 206.719 84.2969 206.719C81.6406 206.719 80.3125 208.391 80.3125 211.734ZM76.1719 211.797C76.1719 206.297 78.8802 203.547 84.2969 203.547C89.7135 203.547 92.4219 206.297 92.4219 211.797C92.4219 217.286 89.7135 220.031 84.2969 220.031C78.901 220.031 76.1927 217.286 76.1719 211.797ZM99.6875 197.656V220H95.5469V197.656H99.6875ZM110.531 203.594C115.51 203.594 118 206.135 118 211.219C118 211.896 117.953 212.573 117.859 213.25H106.969C106.969 215.562 108.667 216.719 112.062 216.719C113.719 216.719 115.375 216.562 117.031 216.25V219.531C115.583 219.844 113.823 220 111.75 220C105.802 220 102.828 217.203 102.828 211.609C102.828 206.266 105.396 203.594 110.531 203.594ZM106.969 210.375H113.969V210.25C113.969 207.979 112.823 206.844 110.531 206.844C108.344 206.844 107.156 208.021 106.969 210.375ZM121.5 220V203.594H123.453L123.938 205.656C125.51 204.281 127.224 203.594 129.078 203.594C131.453 203.594 133.073 204.344 133.938 205.844C135.719 204.344 137.526 203.594 139.359 203.594C143.13 203.594 145.016 205.672 145.016 209.828V220H142.125V209.672C142.125 207.224 141.094 206 139.031 206C137.49 206 136.047 206.708 134.703 208.125V220H131.812V209.719C131.812 207.24 130.792 206 128.75 206C127.125 206 125.672 206.708 124.391 208.125V220H121.5ZM148.938 215.047C148.938 211.682 151.156 210 155.594 210C157.021 210 158.448 210.104 159.875 210.312V208.766C159.875 206.88 158.401 205.938 155.453 205.938C153.766 205.938 152.036 206.198 150.266 206.719V204.375C152.036 203.854 153.766 203.594 155.453 203.594C160.328 203.594 162.766 205.292 162.766 208.688V220H161.141L160.141 218.375C158.505 219.458 156.724 220 154.797 220C150.891 220 148.938 218.349 148.938 215.047ZM155.594 212.344C153.083 212.344 151.828 213.229 151.828 215C151.828 216.771 152.818 217.656 154.797 217.656C156.797 217.656 158.49 217.125 159.875 216.062V212.656C158.448 212.448 157.021 212.344 155.594 212.344ZM167.469 200.938H169.281L169.906 203.594H174.344V205.938H170.359V215.359C170.359 216.891 171.021 217.656 172.344 217.656H174.344V220H171.594C168.844 220 167.469 218.526 167.469 215.578V200.938ZM184.797 203.594C189.464 203.594 191.797 205.901 191.797 210.516C191.797 211.172 191.75 211.875 191.656 212.625H180.141C180.141 215.979 182.099 217.656 186.016 217.656C187.88 217.656 189.536 217.448 190.984 217.031V219.375C189.536 219.792 187.776 220 185.703 220C180.068 220 177.25 217.203 177.25 211.609C177.25 206.266 179.766 203.594 184.797 203.594ZM180.141 210.219H189.016C188.953 207.344 187.547 205.906 184.797 205.906C181.88 205.906 180.328 207.344 180.141 210.219Z" fill="#6E594A"/>
<defs>
<linearGradient id="paint0_linear_17_20" x1="125" y1="250" x2="125" y2="0" gradientUnits="userSpaceOnUse">
<stop offset="0.201923" stop-color="#FEFAF4"/>
<stop offset="1" stop-color="#FFECD9"/>
</linearGradient>
<linearGradient id="paint1_linear_17_20" x1="90.8241" y1="42.047" x2="96.1315" y2="72.7039" gradientUnits="userSpaceOnUse">
<stop stop-color="#C2D37B"/>
<stop offset="1" stop-color="#98B43B"/>
</linearGradient>
<linearGradient id="paint2_linear_17_20" x1="118.505" y1="45.8005" x2="117.831" y2="68.8738" gradientUnits="userSpaceOnUse">
<stop stop-color="#C2D37B"/>
<stop offset="1" stop-color="#98B43B"/>
</linearGradient>
<linearGradient id="paint3_linear_17_20" x1="139.06" y1="51.0115" x2="135.815" y2="69.8456" gradientUnits="userSpaceOnUse">
<stop stop-color="#C2D37B"/>
<stop offset="1" stop-color="#98B43B"/>
</linearGradient>
<linearGradient id="paint4_linear_17_20" x1="154.854" y1="59.1273" x2="150.391" y2="74.5046" gradientUnits="userSpaceOnUse">
<stop stop-color="#C2D37B"/>
<stop offset="1" stop-color="#98B43B"/>
</linearGradient>
<linearGradient id="paint5_linear_17_20" x1="167.373" y1="69.6282" x2="161.819" y2="81.9203" gradientUnits="userSpaceOnUse">
<stop stop-color="#C2D37B"/>
<stop offset="1" stop-color="#98B43B"/>
</linearGradient>
<linearGradient id="paint6_linear_17_20" x1="124.793" y1="80.5" x2="124.793" y2="178.034" gradientUnits="userSpaceOnUse">
<stop stop-color="#AD9B8C"/>
<stop offset="1" stop-color="#8B7769"/>
</linearGradient>
<linearGradient id="paint7_linear_17_20" x1="124.793" y1="80.5" x2="124.793" y2="178.034" gradientUnits="userSpaceOnUse">
<stop stop-color="#AD9B8C"/>
<stop offset="1" stop-color="#8B7769"/>
</linearGradient>
</defs>
</svg>
