<svg width="250" height="250" viewBox="0 0 250 250" fill="none" xmlns="http://www.w3.org/2000/svg">
<rect width="250" height="250" rx="40" fill="url(#paint0_linear_144_4)"/>
<path d="M105.302 71.3284C106.768 79.7941 102.662 87.5733 96.1315 88.7039C89.6012 89.8344 83.1193 83.8881 81.6537 75.4225C80.1881 66.9568 84.2938 59.1775 90.8241 58.047C97.3544 56.9164 103.836 62.8627 105.302 71.3284Z" fill="url(#paint1_linear_144_4)"/>
<path d="M126.905 73.5921C126.719 79.9636 122.657 85.0146 117.831 84.8738C113.006 84.7329 109.245 79.4536 109.431 73.0821C109.617 66.7106 113.68 61.6597 118.505 61.8005C123.33 61.9414 127.091 67.2206 126.905 73.5921Z" fill="url(#paint2_linear_144_4)"/>
<path d="M144.242 77.6008C143.346 82.8017 139.573 86.493 135.815 85.8456C132.057 85.1982 129.737 80.4572 130.633 75.2563C131.529 70.0554 135.302 66.3641 139.06 67.0115C142.818 67.6589 145.138 72.3999 144.242 77.6008Z" fill="url(#paint3_linear_144_4)"/>
<path d="M158.072 84.3977C156.84 88.6441 153.401 91.3782 150.391 90.5046C147.381 89.631 145.941 85.4805 147.173 81.2342C148.406 76.9879 151.845 74.2537 154.854 75.1273C157.864 76.0009 159.305 80.1514 158.072 84.3977Z" fill="url(#paint4_linear_144_4)"/>
<path d="M168.952 93.7427C167.419 97.1371 164.225 99.0075 161.819 97.9203C159.413 96.8332 158.706 93.2002 160.24 89.8058C161.774 86.4115 164.968 84.5411 167.373 85.6282C169.779 86.7154 170.486 90.3484 168.952 93.7427Z" fill="url(#paint5_linear_144_4)"/>
<path d="M140.023 96.5C143.354 96.5 147.587 97.4026 151.184 100.359C154.859 103.382 157.451 108.206 158.012 115.221C158.608 122.672 155.579 128.782 151.572 133.807C147.64 138.739 142.438 143.007 138.339 146.624C129.591 154.343 125.411 157.062 115.998 166.475C112.335 170.138 111.59 175.492 113.275 179.909C114.919 184.216 118.749 187.357 124.303 187.007C129.723 186.665 132.793 183.193 133.886 178.597C135.034 173.766 133.777 168.388 130.97 165.394C129.648 163.983 129.72 161.768 131.13 160.446C132.54 159.125 134.754 159.196 136.076 160.606C140.769 165.612 142.286 173.525 140.696 180.215C139.051 187.138 133.872 193.417 124.744 193.993C115.75 194.561 109.329 189.202 106.735 182.404C104.183 175.717 105.211 167.362 111.048 161.525C120.635 151.938 125.456 148.656 133.708 141.375C138.108 137.492 142.657 133.76 146.099 129.443C149.467 125.219 151.438 120.828 151.034 115.779C150.595 110.294 148.687 107.368 146.738 105.766C144.71 104.098 142.193 103.5 140.023 103.5C137.396 103.5 136.392 103.644 135.092 104.433C133.47 105.416 131.304 107.489 127.175 112.284L124.075 115.884L121.556 111.855C119.314 108.271 117.625 106.281 115.939 105.123C114.386 104.056 112.542 103.5 109.523 103.5C106.662 103.5 104.078 104.315 102.188 106.03C100.34 107.706 98.7385 110.616 98.5195 115.652C98.1024 125.252 104.357 132.985 115.585 141.172C117.147 142.311 117.49 144.5 116.352 146.062C115.213 147.623 113.023 147.967 111.461 146.828C99.9455 138.431 90.9437 128.748 91.5264 115.348C91.8074 108.884 93.9569 104.044 97.4844 100.845C100.969 97.6847 105.385 96.5 109.523 96.5C113.505 96.5 116.859 97.2619 119.903 99.3535C121.75 100.622 123.353 102.296 124.882 104.313C127.426 101.543 129.477 99.6505 131.461 98.4473C134.491 96.6093 137.151 96.5 140.023 96.5Z" fill="url(#paint6_linear_144_4)" stroke="url(#paint7_linear_144_4)" stroke-width="2" stroke-linecap="round"/>
<defs>
<linearGradient id="paint0_linear_144_4" x1="125" y1="250" x2="125" y2="0" gradientUnits="userSpaceOnUse">
<stop offset="0.201923" stop-color="#FEFAF4"/>
<stop offset="1" stop-color="#FFECD9"/>
</linearGradient>
<linearGradient id="paint1_linear_144_4" x1="90.8241" y1="58.047" x2="96.1315" y2="88.7039" gradientUnits="userSpaceOnUse">
<stop stop-color="#C2D37B"/>
<stop offset="1" stop-color="#98B43B"/>
</linearGradient>
<linearGradient id="paint2_linear_144_4" x1="118.505" y1="61.8005" x2="117.831" y2="84.8738" gradientUnits="userSpaceOnUse">
<stop stop-color="#C2D37B"/>
<stop offset="1" stop-color="#98B43B"/>
</linearGradient>
<linearGradient id="paint3_linear_144_4" x1="139.06" y1="67.0115" x2="135.815" y2="85.8456" gradientUnits="userSpaceOnUse">
<stop stop-color="#C2D37B"/>
<stop offset="1" stop-color="#98B43B"/>
</linearGradient>
<linearGradient id="paint4_linear_144_4" x1="154.854" y1="75.1273" x2="150.391" y2="90.5046" gradientUnits="userSpaceOnUse">
<stop stop-color="#C2D37B"/>
<stop offset="1" stop-color="#98B43B"/>
</linearGradient>
<linearGradient id="paint5_linear_144_4" x1="167.373" y1="85.6282" x2="161.819" y2="97.9203" gradientUnits="userSpaceOnUse">
<stop stop-color="#C2D37B"/>
<stop offset="1" stop-color="#98B43B"/>
</linearGradient>
<linearGradient id="paint6_linear_144_4" x1="124.793" y1="96.5" x2="124.793" y2="194.034" gradientUnits="userSpaceOnUse">
<stop stop-color="#AD9B8C"/>
<stop offset="1" stop-color="#8B7769"/>
</linearGradient>
<linearGradient id="paint7_linear_144_4" x1="124.793" y1="96.5" x2="124.793" y2="194.034" gradientUnits="userSpaceOnUse">
<stop stop-color="#AD9B8C"/>
<stop offset="1" stop-color="#8B7769"/>
</linearGradient>
</defs>
</svg>
