<svg width="207" height="308" viewBox="0 0 207 308" fill="none" xmlns="http://www.w3.org/2000/svg">
<g opacity="0.3">
<path d="M58.4725 34.077C61.7307 52.8973 52.6032 70.1916 38.0855 72.7049C23.5679 75.2182 9.15773 61.9989 5.89951 43.1786C2.6413 24.3584 11.7689 7.06408 26.2865 4.55074C40.8041 2.03741 55.2143 15.2568 58.4725 34.077Z" fill="url(#paint0_linear_27_80)"/>
<path d="M106.499 39.1096C106.085 53.2743 97.0542 64.5032 86.327 64.1901C75.5998 63.877 67.2389 52.1405 67.6523 37.9758C68.0657 23.8112 77.0969 12.5823 87.8241 12.8954C98.5513 13.2085 106.912 24.945 106.499 39.1096Z" fill="url(#paint1_linear_27_80)"/>
<path d="M145.041 48.0212C143.049 59.5834 134.662 67.7897 126.307 66.3505C117.953 64.9112 112.795 54.3714 114.787 42.8091C116.779 31.2469 125.166 23.0406 133.52 24.4798C141.875 25.9191 147.033 36.4589 145.041 48.0212Z" fill="url(#paint2_linear_27_80)"/>
<path d="M175.788 63.1319C173.048 72.572 165.402 78.6503 158.711 76.7083C152.02 74.7662 148.817 65.5391 151.558 56.0989C154.298 46.6588 161.943 40.5805 168.634 42.5225C175.325 44.4646 178.528 53.6917 175.788 63.1319Z" fill="url(#paint3_linear_27_80)"/>
<path d="M199.976 83.9067C196.566 91.4528 189.466 95.6109 184.117 93.1941C178.769 90.7772 177.197 82.7007 180.607 75.1546C184.017 67.6084 191.117 63.4504 196.465 65.8672C201.814 68.2841 203.385 76.3606 199.976 83.9067Z" fill="url(#paint4_linear_27_80)"/>
<path d="M135.663 90.0366C143.067 90.0367 152.479 92.0432 160.473 98.6165C168.645 105.335 174.405 116.061 175.653 131.655C176.978 148.221 170.244 161.803 161.337 172.974C152.594 183.94 141.031 193.427 131.918 201.469C112.47 218.629 103.178 224.673 82.2513 245.599C74.1082 253.742 72.451 265.646 76.1985 275.466C79.8532 285.041 88.3671 292.024 100.714 291.245C112.763 290.484 119.589 282.767 122.018 272.548C124.57 261.809 121.776 249.853 115.535 243.196C112.597 240.061 112.756 235.136 115.891 232.197C119.026 229.259 123.949 229.419 126.888 232.553C137.32 243.681 140.693 261.273 137.159 276.145C133.501 291.536 121.987 305.495 101.695 306.776C81.6994 308.039 67.4262 296.124 61.6592 281.013C55.9858 266.146 58.271 247.572 71.2464 234.596C92.5595 213.283 103.278 205.986 121.623 189.799C131.405 181.168 141.517 172.871 149.169 163.274C156.657 153.882 161.039 144.12 160.141 132.897C159.165 120.702 154.924 114.198 150.591 110.635C146.081 106.927 140.486 105.599 135.663 105.598C129.822 105.598 127.59 105.919 124.699 107.672C121.094 109.858 116.279 114.467 107.099 125.127L100.208 133.129L94.6066 124.174C89.6224 116.204 85.8672 111.78 82.1211 109.207C78.6668 106.834 74.568 105.599 67.8575 105.598C61.4953 105.599 55.7522 107.411 51.5488 111.224C47.4416 114.949 43.8812 121.419 43.3944 132.615C42.467 153.955 56.3728 171.148 81.333 189.348C84.8049 191.879 85.5682 196.746 83.0373 200.218C80.5054 203.69 75.637 204.454 72.1648 201.922C46.5644 183.256 26.5525 161.728 27.8477 131.937C28.4726 117.568 33.2511 106.808 41.0931 99.6955C48.839 92.6704 58.6579 90.0367 67.8575 90.0366C76.7081 90.0367 84.1645 91.7305 90.9333 96.3803C95.0378 99.2 98.6021 102.922 102.001 107.407C107.657 101.247 112.217 97.0406 116.627 94.3656C123.364 90.2796 129.277 90.0366 135.663 90.0366Z" fill="url(#paint5_linear_27_80)" stroke="url(#paint6_linear_27_80)" stroke-width="2" stroke-linecap="round"/>
</g>
<defs>
<linearGradient id="paint0_linear_27_80" x1="26.2865" y1="4.55075" x2="38.0855" y2="72.7049" gradientUnits="userSpaceOnUse">
<stop stop-color="#C2D37B"/>
<stop offset="1" stop-color="#98B43B"/>
</linearGradient>
<linearGradient id="paint1_linear_27_80" x1="87.8241" y1="12.8954" x2="86.327" y2="64.1901" gradientUnits="userSpaceOnUse">
<stop stop-color="#C2D37B"/>
<stop offset="1" stop-color="#98B43B"/>
</linearGradient>
<linearGradient id="paint2_linear_27_80" x1="133.52" y1="24.4798" x2="126.307" y2="66.3505" gradientUnits="userSpaceOnUse">
<stop stop-color="#C2D37B"/>
<stop offset="1" stop-color="#98B43B"/>
</linearGradient>
<linearGradient id="paint3_linear_27_80" x1="168.634" y1="42.5225" x2="158.711" y2="76.7083" gradientUnits="userSpaceOnUse">
<stop stop-color="#C2D37B"/>
<stop offset="1" stop-color="#98B43B"/>
</linearGradient>
<linearGradient id="paint4_linear_27_80" x1="196.465" y1="65.8672" x2="184.117" y2="93.1941" gradientUnits="userSpaceOnUse">
<stop stop-color="#C2D37B"/>
<stop offset="1" stop-color="#98B43B"/>
</linearGradient>
<linearGradient id="paint5_linear_27_80" x1="101.804" y1="90.0366" x2="101.804" y2="306.868" gradientUnits="userSpaceOnUse">
<stop stop-color="#AD9B8C"/>
<stop offset="1" stop-color="#8B7769"/>
</linearGradient>
<linearGradient id="paint6_linear_27_80" x1="101.804" y1="90.0366" x2="101.804" y2="306.868" gradientUnits="userSpaceOnUse">
<stop stop-color="#AD9B8C"/>
<stop offset="1" stop-color="#8B7769"/>
</linearGradient>
</defs>
</svg>
